<?xml version="1.0" encoding="utf-8"?>
<!-- Generator: Adobe Illustrator 20.0.0, SVG Export Plug-In . SVG Version: 6.00 Build 0)  -->
<svg version="1.1" id="Layer_1" xmlns="http://www.w3.org/2000/svg" xmlns:xlink="http://www.w3.org/1999/xlink" x="0px" y="0px"
	 viewBox="0 0 24 24" style="enable-background:new 0 0 24 24;" xml:space="preserve">
<style type="text/css">
	.st0{fill:#FFFFFF;}
</style>
<g>
	<path class="st0" d="M6.3,16.7c0-0.3,0-1.2,0-1.6c0-1.6-0.5-2.3-1.6-2.3c-0.6,0-0.9-0.5-0.9-1c0-0.6,0.3-1,0.9-1
		c1.2-0.1,1.6-0.8,1.6-2.4c0-0.4,0-1.2,0-1.6c0-2.1,0.7-3.5,3.4-4.2c0.5-0.2,1,0.3,1,0.9c0,0.5-0.3,0.8-0.5,0.9
		C8.5,5,8.2,5.7,8.2,7.1c0,0.4,0,1.2,0,1.6c0,1.7-0.7,2.5-1.8,3c1.2,0.5,1.8,1.3,1.8,3c0,0.5,0,1.2,0,1.6c0,1.5,0.2,2.2,1.9,2.8
		c0.2,0.1,0.5,0.4,0.5,0.9c0,0.6-0.4,1-1,0.9C7,20.2,6.3,18.8,6.3,16.7z"/>
	<path class="st0" d="M17.7,6.7c0,0.3,0,1.2,0,1.6c0,1.6,0.5,2.3,1.7,2.4c0.5,0,0.9,0.5,0.9,1c0,0.6-0.3,1-0.9,1
		c-1.2,0-1.7,0.8-1.7,2.3c0,0.4,0,1.2,0,1.6c0,2.1-0.7,3.5-3.4,4.2c-0.5,0.2-1-0.3-1-0.9c0-0.5,0.3-0.8,0.5-0.9
		c1.7-0.7,1.9-1.3,1.9-2.8c0-0.4,0-1.2,0-1.6c0-1.7,0.7-2.5,1.8-3c-1.2-0.5-1.8-1.3-1.8-3c0-0.5,0-1.2,0-1.6c0-1.5-0.2-2.2-1.9-2.8
		c-0.2-0.1-0.5-0.4-0.5-0.9c0-0.6,0.4-1,1-0.9C17,3.3,17.7,4.6,17.7,6.7z"/>
</g>
</svg>
