<svg xmlns="http://www.w3.org/2000/svg" viewBox="0 0 50.2 42.26"><defs><style>.cls-1,.cls-2{fill:#ee2c39;}.cls-1{fill-rule:evenodd;}</style></defs><title>monkey</title><g id="Layer_2" data-name="Layer 2"><g id="Layer_1-2" data-name="Layer 1"><path class="cls-1" d="M24.12,5.1a.58.58,0,1,1,.57.68h0A1.58,1.58,0,1,0,24,4.48,1.61,1.61,0,0,0,24.12,5.1Z"/><path class="cls-1" d="M14.49,6.2a1.57,1.57,0,0,0,.9-.29h0a.58.58,0,1,1,.57-.68,1.55,1.55,0,0,0,.13-.62A1.58,1.58,0,1,0,14.49,6.2Z"/><path class="cls-1" d="M20.18,1.38c.67-.16,1.31.09,1.18.59C20.9,2.24,20.1,2,20.18,1.38Z"/><path class="cls-1" d="M18.41,1.85c.14-.47.92-.58,1.3-.47C19.86,2.24,18.83,2.19,18.41,1.85Z"/><path class="cls-2" d="M1,10.31a15.32,15.32,0,0,0-.13,2c0,8.51,7,15.59,16.2,16.86a3.76,3.76,0,0,1-1.41,1.29,5.37,5.37,0,0,1-2.59.62,8,8,0,0,0,5.21-.73,5.81,5.81,0,0,0,1.32-1h.07a3.27,3.27,0,0,1-1.85,3.38,5.35,5.35,0,0,1-2.6.62,7.94,7.94,0,0,0,5.21-.73,4.85,4.85,0,0,0,2.62-3.47c9.13-1.29,16.13-8.35,16.13-16.84a15,15,0,0,0-.13-2c1-1.08,1.28-3.05.8-5.28C39.21,2,36.35,0,35,.31a2.4,2.4,0,0,0-.48.17c-.06-.14-.14-.28-.2-.43H31.28A12.66,12.66,0,0,1,32,3.52,6.52,6.52,0,0,1,26.47,9.9a8.15,8.15,0,0,1-6.39-2.51L18.77,9a6,6,0,0,1-4.68,2.38c-4.94,0-6.36-4.1-6.26-7A19.33,19.33,0,0,1,8.76.06H5.69c-.07.14-.14.27-.2.41A2.39,2.39,0,0,0,5,.31C3.71,0,.86,2,.22,5-.26,7.26.06,9.23,1,10.31ZM38.74,4.75a6.53,6.53,0,0,1-.08,3.58,16.37,16.37,0,0,0-3.6-6.59l-.17-.46C36.4,1,38.2,2.4,38.74,4.75Zm-37.41,0C1.86,2.42,3.65,1,5.16,1.28L5,1.79A16.3,16.3,0,0,0,1.42,8.33,6.53,6.53,0,0,1,1.33,4.75Zm13,8c2.76,0,4.19-2,5.52-3.07.13-.1.41-.37.58-.37a1.08,1.08,0,0,1,.51.21A7.44,7.44,0,0,0,26,11.19a6.06,6.06,0,0,0,3-.9l-.15.23a8.21,8.21,0,0,1-3.53,1.13,8.43,8.43,0,0,1-4.51-1.13,1.57,1.57,0,0,0-.46-.1.76.76,0,0,0-.55.17c-2,1.35-2.74,2.67-5.47,2.78A6.65,6.65,0,0,1,11.22,12L11,11.78A7.3,7.3,0,0,0,14.29,12.79Z"/><path class="cls-2" d="M43.89,0a26.31,26.31,0,0,1,3.18,14.35,26.32,26.32,0,0,1-8.92,18.21,26.66,26.66,0,0,1-5.77,3.89A26.46,26.46,0,0,1,19,39.14,26.32,26.32,0,0,1,3.9,33.24a1.54,1.54,0,0,0-1.65-.19A1.54,1.54,0,0,0,2,35.62,29.36,29.36,0,0,0,18.78,42.2a29.53,29.53,0,0,0,15-3,29.75,29.75,0,0,0,6.44-4.34,29.37,29.37,0,0,0,9.95-20.32A29.4,29.4,0,0,0,47.34,0Z"/></g></g></svg>