<?xml version="1.0" encoding="utf-8"?>
<!-- Generator: Adobe Illustrator 20.0.0, SVG Export Plug-In . SVG Version: 6.00 Build 0)  -->
<svg version="1.1" id="Layer_1" xmlns="http://www.w3.org/2000/svg" xmlns:xlink="http://www.w3.org/1999/xlink" x="0px" y="0px"
	 viewBox="0 0 24 24" style="enable-background:new 0 0 24 24;" xml:space="preserve">
<style type="text/css">
	.st0{fill:#FFFFFF;}
</style>
<path class="st0" d="M21.7,7.6c0-3.1-2.5-5.5-5.5-5.5c-1.4,0-2.6,0.5-3.6,1.4l-0.1,0c0,0,0,0.1,0,0.1c-0.8,0.7-1.4,1.7-1.7,2.8
	L3.7,9.4c-0.1,0-0.2-0.1-0.3-0.1c-0.6,0-1,0.5-1,1c0,0.6,0.5,1,1,1c0.4,0,0.8-0.2,0.9-0.6l6.3-2.8c0.1,1,0.5,2,1,2.8l-8.3,7.5
	c-0.6,0-1,0.5-1,1c0,0.6,0.5,1,1,1c0.5,0,0.9-0.4,1-0.9l8.4-7.6c0.9,0.7,2.1,1.2,3.4,1.2c0,0,0,0,0.1,0l-2.7,6.4
	c-0.3,0.2-0.6,0.5-0.6,0.9c0,0.6,0.5,1,1,1c0.6,0,1-0.5,1-1c0-0.1,0-0.2-0.1-0.3l3.1-7.4C20.2,12,21.7,10,21.7,7.6z M20.1,7.6
	c0,1.4-0.7,2.6-1.8,3.3c-0.4-0.1-2.7-0.9-4.1-2.9c-0.8-1.2-1-2.3-1-3.1C14,4.2,15,3.6,16.2,3.6C18.4,3.6,20.1,5.4,20.1,7.6z
	 M12.2,7.6c0-0.4,0.1-0.8,0.2-1.2c0.2,0.7,0.5,1.5,1,2.2c1.1,1.5,2.5,2.4,3.6,2.9c-0.3,0.1-0.5,0.1-0.8,0.1
	C14,11.6,12.2,9.8,12.2,7.6z"/>
</svg>
