<?xml version="1.0" encoding="utf-8"?>
<!-- Generator: Adobe Illustrator 20.0.0, SVG Export Plug-In . SVG Version: 6.00 Build 0)  -->
<svg version="1.1" id="Layer_1" xmlns="http://www.w3.org/2000/svg" xmlns:xlink="http://www.w3.org/1999/xlink" x="0px" y="0px"
	 viewBox="0 0 24 24" style="enable-background:new 0 0 24 24;" xml:space="preserve">
<style type="text/css">
	.st0{fill:#FFFFFF;}
</style>
<g>
	<g>
		<g>
			<path class="st0" d="M6.4,21.9c-1.4,0-2.6-0.7-3.4-1.8C2,18.5,2.2,16.4,3.6,15L10,8.7c-0.1-1.8,0.5-3.5,1.8-4.8
				c1.6-1.6,4-2.2,6.1-1.5c0.4,0.1,0.6,0.4,0.7,0.7c0.1,0.4,0,0.7-0.2,0.9l-2.3,2.3L16.4,8L18,8.5l2.3-2.3c0.5-0.5,1.5-0.2,1.8,0.5
				c0.6,2.2,0,4.6-1.5,6.1c-1.2,1.2-2.7,1.8-4.3,1.8l0,0c-0.1,0-0.4,0-0.5,0l-6.3,6.3C8.4,21.4,7.5,21.9,6.4,21.9z M5,15.6
				c-1,1-1.2,2.4-0.4,3.5c0.6,0.8,1.3,1.2,2.3,1.2c0.8,0,1.4-0.3,1.9-0.8l6.1-6l0.1-0.1c0.1-0.1,0.3-0.2,0.4-0.2
				c1.4,0.2,2.9-0.3,3.9-1.3c1.2-1.2,2.3-2.8,1.6-4.7l-2.2,2.4c-0.2,0.2-0.7,0.3-0.9,0.3h-0.2l-1.7-0.4c-0.3-0.1-0.6-0.3-0.7-0.7
				l-0.6-2.1c-0.1-0.3,0-0.7,0.2-0.9L17,3.6c-1.7-0.7-3.6,0.3-4.7,1.4c-1,1-1.3,2.9-1.1,4.3c0,0.2-0.1,0.3-0.2,0.4L5,15.6z"/>
		</g>
	</g>
</g>
</svg>
